<svg width="100" height="53" viewBox="0 0 100 53" fill="none" xmlns="http://www.w3.org/2000/svg">
<g filter="url(#filter0_d_1005_324)">
<rect x="10" y="4" width="80" height="24" rx="4" fill="#E6733E"/>
<path d="M49 37L39.9996 28L59 28L49 37Z" fill="#E6733E"/>
</g>
<path d="M39.968 21H38.864V12.408H39.968V16.092H44.264V12.408H45.368V21H44.264V17.124H39.968V21ZM47.5268 19.2C47.5268 19.488 47.6468 19.728 47.8868 19.92C48.1348 20.112 48.4228 20.208 48.7508 20.208C49.2148 20.208 49.6268 20.036 49.9868 19.692C50.3548 19.348 50.5388 18.944 50.5388 18.48C50.1948 18.208 49.7148 18.072 49.0988 18.072C48.6508 18.072 48.2748 18.18 47.9708 18.396C47.6748 18.612 47.5268 18.88 47.5268 19.2ZM48.9548 14.928C49.7708 14.928 50.4148 15.148 50.8868 15.588C51.3588 16.02 51.5948 16.616 51.5948 17.376V21H50.5388V20.184H50.4908C50.0348 20.856 49.4268 21.192 48.6668 21.192C48.0188 21.192 47.4748 21 47.0348 20.616C46.6028 20.232 46.3868 19.752 46.3868 19.176C46.3868 18.568 46.6148 18.084 47.0708 17.724C47.5348 17.364 48.1508 17.184 48.9188 17.184C49.5748 17.184 50.1148 17.304 50.5388 17.544V17.292C50.5388 16.908 50.3868 16.584 50.0828 16.32C49.7788 16.048 49.4228 15.912 49.0148 15.912C48.3988 15.912 47.9108 16.172 47.5508 16.692L46.5788 16.08C47.1148 15.312 47.9068 14.928 48.9548 14.928ZM53.944 21H52.84V15.12H53.896V16.08H53.944C54.056 15.768 54.284 15.504 54.628 15.288C54.98 15.064 55.324 14.952 55.66 14.952C55.98 14.952 56.252 15 56.476 15.096L56.14 16.164C56.004 16.108 55.788 16.08 55.492 16.08C55.076 16.08 54.712 16.248 54.4 16.584C54.096 16.92 53.944 17.312 53.944 17.76V21ZM59.4761 20.184C60.0201 20.184 60.4641 19.988 60.8081 19.596C61.1681 19.204 61.3481 18.692 61.3481 18.06C61.3481 17.444 61.1681 16.936 60.8081 16.536C60.4561 16.136 60.0121 15.936 59.4761 15.936C58.9481 15.936 58.5041 16.136 58.1441 16.536C57.7841 16.936 57.6041 17.444 57.6041 18.06C57.6041 18.684 57.7841 19.192 58.1441 19.584C58.5041 19.984 58.9481 20.184 59.4761 20.184ZM59.2961 21.192C58.5281 21.192 57.8681 20.888 57.3161 20.28C56.7721 19.664 56.5001 18.924 56.5001 18.06C56.5001 17.196 56.7721 16.456 57.3161 15.84C57.8681 15.232 58.5281 14.928 59.2961 14.928C59.7281 14.928 60.1201 15.02 60.4721 15.204C60.8321 15.388 61.1081 15.632 61.3001 15.936H61.3481L61.3001 15.12V12.408H62.4041V21H61.3481V20.184H61.3001C61.1081 20.488 60.8321 20.732 60.4721 20.916C60.1201 21.1 59.7281 21.192 59.2961 21.192ZM66.3315 21.192C65.4675 21.192 64.7555 20.896 64.1955 20.304C63.6355 19.712 63.3555 18.964 63.3555 18.06C63.3555 17.164 63.6275 16.42 64.1715 15.828C64.7155 15.228 65.4115 14.928 66.2595 14.928C67.1315 14.928 67.8235 15.212 68.3355 15.78C68.8555 16.34 69.1155 17.128 69.1155 18.144L69.1035 18.264H64.4835C64.4995 18.84 64.6915 19.304 65.0595 19.656C65.4275 20.008 65.8675 20.184 66.3795 20.184C67.0835 20.184 67.6355 19.832 68.0355 19.128L69.0195 19.608C68.7555 20.104 68.3875 20.492 67.9155 20.772C67.4515 21.052 66.9235 21.192 66.3315 21.192ZM64.5675 17.352H67.9395C67.9075 16.944 67.7395 16.608 67.4355 16.344C67.1395 16.072 66.7395 15.936 66.2355 15.936C65.8195 15.936 65.4595 16.064 65.1555 16.32C64.8595 16.576 64.6635 16.92 64.5675 17.352ZM72.8237 21.192C71.9597 21.192 71.2477 20.896 70.6877 20.304C70.1277 19.712 69.8477 18.964 69.8477 18.06C69.8477 17.164 70.1197 16.42 70.6637 15.828C71.2077 15.228 71.9037 14.928 72.7517 14.928C73.6237 14.928 74.3157 15.212 74.8277 15.78C75.3477 16.34 75.6077 17.128 75.6077 18.144L75.5957 18.264H70.9757C70.9917 18.84 71.1837 19.304 71.5517 19.656C71.9197 20.008 72.3597 20.184 72.8717 20.184C73.5757 20.184 74.1277 19.832 74.5277 19.128L75.5117 19.608C75.2477 20.104 74.8797 20.492 74.4077 20.772C73.9437 21.052 73.4157 21.192 72.8237 21.192ZM71.0597 17.352H74.4317C74.3997 16.944 74.2317 16.608 73.9277 16.344C73.6317 16.072 73.2317 15.936 72.7277 15.936C72.3117 15.936 71.9517 16.064 71.6477 16.32C71.3517 16.576 71.1557 16.92 71.0597 17.352ZM81.1759 19.368C81.1759 19.88 80.9519 20.312 80.5039 20.664C80.0559 21.016 79.4919 21.192 78.8119 21.192C78.2199 21.192 77.6999 21.04 77.2519 20.736C76.8039 20.424 76.4839 20.016 76.2919 19.512L77.2759 19.092C77.4199 19.444 77.6279 19.72 77.8999 19.92C78.1799 20.112 78.4839 20.208 78.8119 20.208C79.1639 20.208 79.4559 20.132 79.6879 19.98C79.9279 19.828 80.0479 19.648 80.0479 19.44C80.0479 19.064 79.7599 18.788 79.1839 18.612L78.1759 18.36C77.0319 18.072 76.4599 17.52 76.4599 16.704C76.4599 16.168 76.6759 15.74 77.1079 15.42C77.5479 15.092 78.1079 14.928 78.7879 14.928C79.3079 14.928 79.7759 15.052 80.1919 15.3C80.6159 15.548 80.9119 15.88 81.0799 16.296L80.0959 16.704C79.9839 16.456 79.7999 16.264 79.5439 16.128C79.2959 15.984 79.0159 15.912 78.7039 15.912C78.4159 15.912 78.1559 15.984 77.9239 16.128C77.6999 16.272 77.5879 16.448 77.5879 16.656C77.5879 16.992 77.9039 17.232 78.5359 17.376L79.4239 17.604C80.5919 17.892 81.1759 18.48 81.1759 19.368Z" fill="white"/>
<path d="M21.0497 14C20.9751 13.9998 20.9015 13.983 20.8343 13.9507C20.767 13.9184 20.7079 13.8715 20.6611 13.8133C20.6144 13.7552 20.5812 13.6873 20.5641 13.6147C20.547 13.5421 20.5464 13.4666 20.5622 13.3938C20.9622 11.4688 23.2435 10 25.9997 10C28.756 10 31.0372 11.4688 31.4372 13.3938C31.4531 13.4666 31.4524 13.5421 31.4353 13.6147C31.4182 13.6873 31.385 13.7552 31.3383 13.8133C31.2915 13.8715 31.2324 13.9184 31.1651 13.9507C31.0979 13.983 31.0243 13.9998 30.9497 14H21.0497Z" stroke="white" stroke-width="1.2" stroke-linecap="round" stroke-linejoin="round"/>
<path d="M31 18.5V19.5C31 20.0304 30.7893 20.5391 30.4142 20.9142C30.0391 21.2893 29.5304 21.5 29 21.5H23C22.4696 21.5 21.9609 21.2893 21.5858 20.9142C21.2107 20.5391 21 20.0304 21 19.5V18.5" stroke="white" stroke-width="1.2" stroke-linecap="round" stroke-linejoin="round"/>
<path d="M19.75 19L22.25 18L24.75 19L27.25 18L29.75 19L32.25 18" stroke="white" stroke-width="1.2" stroke-linecap="round" stroke-linejoin="round"/>
<path d="M19.5 16H32.5" stroke="white" stroke-width="1.2" stroke-linecap="round" stroke-linejoin="round"/>
<defs>
<filter id="filter0_d_1005_324" x="0" y="0" width="100" height="53" filterUnits="userSpaceOnUse" color-interpolation-filters="sRGB">
<feFlood flood-opacity="0" result="BackgroundImageFix"/>
<feColorMatrix in="SourceAlpha" type="matrix" values="0 0 0 0 0 0 0 0 0 0 0 0 0 0 0 0 0 0 127 0" result="hardAlpha"/>
<feOffset dy="6"/>
<feGaussianBlur stdDeviation="5"/>
<feComposite in2="hardAlpha" operator="out"/>
<feColorMatrix type="matrix" values="0 0 0 0 0 0 0 0 0 0 0 0 0 0 0 0 0 0 1 0"/>
<feBlend mode="normal" in2="BackgroundImageFix" result="effect1_dropShadow_1005_324"/>
<feBlend mode="normal" in="SourceGraphic" in2="effect1_dropShadow_1005_324" result="shape"/>
</filter>
</defs>
</svg>
