<svg width="20" height="20" viewBox="0 0 20 20" fill="none" xmlns="http://www.w3.org/2000/svg">
<g clip-path="url(#clip0_33_690)">
<path d="M17.9266 2.60464H16.671V1.60959C16.671 1.32306 16.4366 1.08862 16.15 1.08862C15.8635 1.08862 15.6291 1.32306 15.6291 1.60959V2.60464H10.5236V1.60959C10.5236 1.32306 10.2891 1.08862 10.0026 1.08862C9.71608 1.08862 9.48164 1.32306 9.48164 1.60959V2.60464H4.32404V1.60959C4.32404 1.32306 4.08961 1.08862 3.80308 1.08862C3.51654 1.08862 3.28211 1.32306 3.28211 1.60959V2.60464H2.07867C0.932535 2.60464 0 3.56844 0 4.71457V16.8271C0 17.9784 0.927325 18.911 2.07867 18.911H17.9213C19.0727 18.911 20 17.9784 20 16.8323V4.71457C20.0052 3.56844 19.0727 2.60464 17.9266 2.60464ZM18.9633 16.8271C18.9633 17.4002 18.5048 17.8638 17.9318 17.869H17.9266H2.07867C1.5056 17.869 1.04194 17.4054 1.04194 16.8323V16.8271V4.71457C1.04194 4.13629 1.5056 3.64658 2.07867 3.64658H3.28211V4.40199C3.28211 4.68852 3.51654 4.92295 3.80308 4.92295C4.08961 4.92295 4.32404 4.68852 4.32404 4.40199V3.64658H9.48164V4.40199C9.48164 4.68852 9.71608 4.92295 10.0026 4.92295C10.2891 4.92295 10.5236 4.68852 10.5236 4.40199V3.64658H15.6291V4.40199C15.6291 4.68852 15.8635 4.92295 16.15 4.92295C16.4366 4.92295 16.671 4.68852 16.671 4.40199V3.64658H17.9266C18.5048 3.64658 18.9633 4.1415 18.9633 4.71457V16.8271Z" fill="#000"/>
<path d="M8.63237 7.0332H7.72068C7.43414 7.0332 7.19971 7.26764 7.19971 7.55417C7.19971 7.8407 7.43414 8.07514 7.72068 8.07514H8.63237C8.9189 8.07514 9.15334 7.8407 9.15334 7.55417C9.15334 7.26764 8.9189 7.0332 8.63237 7.0332Z" fill="#000"/>
<path d="M12.2583 7.0332H11.3467C11.0601 7.0332 10.8257 7.26764 10.8257 7.55417C10.8257 7.8407 11.0601 8.07514 11.3467 8.07514H12.2583C12.5449 8.07514 12.7793 7.8407 12.7793 7.55417C12.7793 7.26764 12.5501 7.0332 12.2583 7.0332Z" fill="#000"/>
<path d="M15.9156 7.0332H15.0039C14.7173 7.0332 14.4829 7.26764 14.4829 7.55417C14.4829 7.8407 14.7173 8.07514 15.0039 8.07514H15.9156C16.2021 8.07514 16.4365 7.8407 16.4365 7.55417C16.4365 7.26764 16.2021 7.0332 15.9156 7.0332Z" fill="#000"/>
<path d="M8.63237 10.6277H7.72068C7.43414 10.6277 7.19971 10.8621 7.19971 11.1487C7.19971 11.4352 7.43414 11.6696 7.72068 11.6696H8.63237C8.9189 11.6696 9.15334 11.4352 9.15334 11.1487C9.15334 10.8621 8.9189 10.6277 8.63237 10.6277Z" fill="#000"/>
<path d="M4.98035 10.6277H4.06345C3.77692 10.6277 3.54248 10.8621 3.54248 11.1487C3.54248 11.4352 3.77692 11.6696 4.06345 11.6696H4.97515C5.26168 11.6696 5.49611 11.4352 5.49611 11.1487C5.49611 10.8621 5.26689 10.6277 4.98035 10.6277Z" fill="#000"/>
<path d="M12.2583 10.6277H11.3467C11.0601 10.6277 10.8257 10.8621 10.8257 11.1487C10.8257 11.4352 11.0601 11.6696 11.3467 11.6696H12.2583C12.5449 11.6696 12.7793 11.4352 12.7793 11.1487C12.7793 10.8621 12.5501 10.6277 12.2583 10.6277Z" fill="#000"/>
<path d="M15.9156 10.6277H15.0039C14.7173 10.6277 14.4829 10.8621 14.4829 11.1487C14.4829 11.4352 14.7173 11.6696 15.0039 11.6696H15.9156C16.2021 11.6696 16.4365 11.4352 16.4365 11.1487C16.4365 10.8621 16.2021 10.6277 15.9156 10.6277Z" fill="#000"/>
<path d="M8.63237 14.1705H7.72068C7.43414 14.1705 7.19971 14.4049 7.19971 14.6914C7.19971 14.978 7.43414 15.2124 7.72068 15.2124H8.63237C8.9189 15.2124 9.15334 14.978 9.15334 14.6914C9.15334 14.4049 8.9189 14.1705 8.63237 14.1705Z" fill="#000"/>
<path d="M4.98035 14.1705H4.06345C3.77692 14.1705 3.54248 14.4049 3.54248 14.6914C3.54248 14.978 3.77692 15.2124 4.06345 15.2124H4.97515C5.26168 15.2124 5.49611 14.978 5.49611 14.6914C5.49611 14.4049 5.26689 14.1705 4.98035 14.1705Z" fill="#000"/>
<path d="M12.2583 14.1705H11.3467C11.0601 14.1705 10.8257 14.4049 10.8257 14.6914C10.8257 14.978 11.0601 15.2124 11.3467 15.2124H12.2583C12.5449 15.2124 12.7793 14.978 12.7793 14.6914C12.7793 14.4049 12.5501 14.1705 12.2583 14.1705Z" fill="#000"/>
</g>
<defs>
<clipPath id="clip0_33_690">
<rect width="20" height="20" fill="white"/>
</clipPath>
</defs>
</svg>
