<svg width="30" height="30" viewBox="0 0 30 30" fill="none" xmlns="http://www.w3.org/2000/svg">
	<path d="M15 2.5C21.9038 2.5 27.5 8.09625 27.5 15C27.5 21.9037 21.9038 27.5 15 27.5C12.9778 27.5027 10.9854 27.0127 9.19501 26.0725L3.83251 27.4688C3.65333 27.5154 3.46507 27.5145 3.28637 27.4659C3.10768 27.4174 2.94477 27.3231 2.81378 27.1922C2.68279 27.0613 2.58827 26.8985 2.53959 26.7199C2.49092 26.5412 2.48977 26.353 2.53626 26.1737L3.93126 20.8125C2.98851 19.0203 2.49723 17.0251 2.50001 15C2.50001 8.09625 8.09626 2.5 15 2.5ZM16.565 16.25H10.9375L10.81 16.2587C10.5856 16.2896 10.38 16.4007 10.2312 16.5714C10.0823 16.7422 10.0003 16.961 10.0003 17.1875C10.0003 17.414 10.0823 17.6328 10.2312 17.8036C10.38 17.9743 10.5856 18.0854 10.81 18.1163L10.9375 18.125H16.565L16.6913 18.1163C16.9157 18.0854 17.1213 17.9743 17.2701 17.8036C17.419 17.6328 17.501 17.414 17.501 17.1875C17.501 16.961 17.419 16.7422 17.2701 16.5714C17.1213 16.4007 16.9157 16.2896 16.6913 16.2587L16.565 16.25ZM19.0625 11.875H10.9375L10.81 11.8837C10.5856 11.9146 10.38 12.0257 10.2312 12.1964C10.0823 12.3672 10.0003 12.586 10.0003 12.8125C10.0003 13.039 10.0823 13.2578 10.2312 13.4286C10.38 13.5993 10.5856 13.7104 10.81 13.7413L10.9375 13.75H19.0625L19.19 13.7413C19.4144 13.7104 19.62 13.5993 19.7689 13.4286C19.9177 13.2578 19.9997 13.039 19.9997 12.8125C19.9997 12.586 19.9177 12.3672 19.7689 12.1964C19.62 12.0257 19.4144 11.9146 19.19 11.8837L19.0625 11.875Z" fill="#000" />
</svg>
