<svg width="29" height="29" viewBox="0 0 29 29" fill="none" xmlns="http://www.w3.org/2000/svg">
<path d="M14.6644 2.71875C8.03856 2.62925 2.62938 8.03843 2.71887 14.6643C2.80723 21.0188 7.98135 26.1929 14.3359 26.2812C20.9628 26.3719 26.3709 20.9627 26.2802 14.3369C26.193 7.98123 21.0189 2.80711 14.6644 2.71875ZM19.881 9.9257L15.2229 20.4903C14.9515 21.0833 14.0459 20.8868 14.0459 20.232V15.1797C14.0459 15.1196 14.022 15.062 13.9795 15.0195C13.937 14.977 13.8794 14.9531 13.8193 14.9531H8.76809C8.11559 14.9531 7.91848 14.0542 8.50924 13.7824L19.0744 9.11914C19.1873 9.06701 19.3135 9.05076 19.4359 9.07258C19.5583 9.09439 19.671 9.15323 19.759 9.24115C19.8469 9.32907 19.9057 9.44184 19.9275 9.56425C19.9494 9.68666 19.9331 9.81282 19.881 9.9257Z" fill="#D94540"/>
</svg>
