<svg width="18" height="17" viewBox="0 0 18 17" fill="none" xmlns="http://www.w3.org/2000/svg">
	<path d="M10.8047 0.963709C11.9972 -0.20531 13.9316 -0.20531 15.1241 0.963709L16.3622 2.17732C17.5548 3.34634 17.5548 5.24245 16.3622 6.41147L7.05643 15.5334C6.52431 16.055 5.80287 16.3477 5.04984 16.3477H1.2388C0.884762 16.3477 0.600263 16.0618 0.609087 15.7149L0.704952 11.9454C0.724011 11.2329 1.02141 10.5537 1.53544 10.0498L10.8047 0.963709ZM10.0842 3.41468L2.42626 10.923C2.14053 11.2031 1.97493 11.5813 1.96435 11.977L1.88436 15.1124L5.04984 15.1128C5.42232 15.1128 5.78052 14.9843 6.06324 14.7521L6.16561 14.6602L13.8615 7.11642L10.0842 3.41468ZM14.2333 1.83693C13.5327 1.15018 12.3961 1.15018 11.6955 1.83693L10.9757 2.54138L14.752 6.24312L15.4714 5.53825C16.1331 4.88965 16.1698 3.85978 15.5817 3.16881L15.4714 3.05054L14.2333 1.83693Z" fill="white" />
</svg>
