<svg width="30" height="30" viewBox="0 0 30 30" fill="none" xmlns="http://www.w3.org/2000/svg">
<path fill-rule="evenodd" clip-rule="evenodd" d="M24.2631 3.0666C23.4288 3.26868 22.7549 4.01159 22.6207 4.87716C22.4349 6.0752 23.3068 7.23945 24.497 7.38289C25.718 7.53001 26.7882 6.72093 26.9769 5.50821C27.0783 4.85588 26.8416 4.15068 26.3571 3.66185C25.7928 3.09257 25.0398 2.8785 24.2631 3.0666ZM17.7508 3.50129C17.694 3.54115 17.4592 3.92184 17.229 4.34729L16.8105 5.12086L16.0632 5.52778C15.6522 5.75153 15.2775 5.96848 15.2304 6.00986C15.129 6.09907 15.1187 6.28149 15.2102 6.37207C15.246 6.40758 15.6184 6.62375 16.0376 6.85239L16.7999 7.26811L17.2515 8.08858C17.7177 8.93527 17.8036 9.02859 18.0111 8.914C18.0607 8.88666 18.296 8.50518 18.5341 8.06618L18.967 7.26811L19.7801 6.82569C20.5402 6.41213 20.5942 6.37339 20.6081 6.23224C20.6272 6.03891 20.5782 6.00096 19.6763 5.51061L18.9625 5.12253L18.5614 4.38573C18.0341 3.41712 17.9703 3.34747 17.7508 3.50129ZM10.4533 4.00905C10.3596 4.05918 10.2458 4.16369 10.2002 4.24136C10.0297 4.53216 9.33017 6.60707 9.33017 6.82197C9.33017 7.19734 9.6667 7.53695 10.0387 7.53695C10.228 7.53695 10.4961 7.39918 10.6101 7.24331C10.7495 7.05262 11.5291 4.8217 11.5288 4.61394C11.5283 4.09004 10.9303 3.75375 10.4533 4.00905ZM13.8989 8.68599C13.3886 8.86817 13.25 9.49668 13.6351 9.88213C14.0782 10.3257 14.8518 9.99926 14.8518 9.36874C14.8518 8.86098 14.3719 8.51716 13.8989 8.68599ZM21.1169 9.03676C20.6094 9.28712 20.5898 10.0144 21.0827 10.3035C21.3309 10.4491 21.5002 10.4536 21.772 10.3219C21.923 10.2487 22.0075 10.1641 22.0806 10.013C22.2076 9.75056 22.2071 9.62668 22.0784 9.36048C21.9052 9.00233 21.4782 8.85859 21.1169 9.03676ZM8.39829 10.0004C7.91665 10.1304 7.51103 10.4684 7.30776 10.9092C7.15516 11.2401 7.16268 11.9197 7.32261 12.2567C7.49373 12.6172 17.5455 22.6781 17.9057 22.8494C18.106 22.9446 18.2294 22.9657 18.5898 22.9665C18.9991 22.9674 19.0511 22.9558 19.3391 22.7995C19.8221 22.5374 20.1326 22.0874 20.2042 21.5459C20.244 21.2443 20.1355 20.7772 19.9637 20.5109C19.8982 20.4095 17.5503 18.0339 14.7462 15.2319L9.64778 10.1373L9.31283 10.0355C8.93604 9.92086 8.72338 9.91274 8.39829 10.0004ZM26.0912 10.326C25.7531 10.4056 25.6469 10.5978 25.389 11.5965C25.2606 12.0941 25.1339 12.5843 25.1076 12.6858L25.0598 12.8704L24.6345 12.5741C24.4005 12.411 24.0832 12.1864 23.9293 12.0748C23.6924 11.903 23.6046 11.8686 23.3578 11.8507C22.8727 11.8156 22.4807 12.0748 22.337 12.5257C22.2773 12.7131 22.1826 13.7052 22.1818 14.1519C22.1815 14.3374 22.1614 14.4331 22.1228 14.4331C22.0906 14.4331 21.6007 14.181 21.0341 13.8729C20.4481 13.5543 19.9195 13.2993 19.8079 13.2815C19.3914 13.2148 18.9363 13.4691 18.7542 13.8702C18.676 14.0426 18.6652 14.2111 18.6644 15.2645C18.6636 16.375 18.6706 16.4744 18.7606 16.6221C19.0583 17.1108 19.7599 17.0892 20.0191 16.5833C20.1168 16.3925 20.129 16.2966 20.129 15.7188C20.129 15.3614 20.1367 15.0689 20.1461 15.0689C20.1555 15.0689 20.3699 15.1818 20.6225 15.3197C21.7212 15.9197 22.3315 16.1938 22.5662 16.1927C23.0037 16.1906 23.4437 15.8664 23.5429 15.473C23.5684 15.3718 23.6042 14.9478 23.6224 14.5309C23.6407 14.114 23.6657 13.7627 23.678 13.7502C23.6904 13.7378 23.749 13.759 23.8082 13.7973C24.3373 14.1393 24.9665 14.4914 25.1255 14.5342C25.5121 14.6384 25.8759 14.4896 26.1664 14.1083C26.2984 13.9351 26.3695 13.7079 26.675 12.4838C27.0668 10.9137 27.0724 10.8363 26.8169 10.5451C26.696 10.4072 26.3985 10.2594 26.2858 10.2812C26.2724 10.2838 26.1848 10.304 26.0912 10.326ZM16.4324 11.0759C15.8102 11.3218 15.2527 11.567 15.1936 11.6208C14.834 11.9475 14.8806 12.4738 15.2964 12.782C15.5367 12.9601 15.7702 12.9123 17.0003 12.4336C17.6258 12.1903 18.1894 11.9571 18.2527 11.9156C18.6397 11.6618 18.6141 10.9615 18.2087 10.7141C17.916 10.5354 17.6759 10.5843 16.4324 11.0759ZM6.87795 16.2939L6.21233 17.8123L10.5564 19.9864C12.9456 21.1821 14.9169 22.1605 14.937 22.1605C14.9572 22.1605 13.3136 20.4989 11.2847 18.468C9.2558 16.4371 7.58403 14.7754 7.56967 14.7754C7.55535 14.7754 7.24404 15.4587 6.87795 16.2939ZM21.5595 17.7614C21.0759 17.864 20.8498 18.3031 21.0488 18.7533C21.2866 19.2913 22.0186 19.3312 22.3281 18.823C22.644 18.3045 22.1587 17.6344 21.5595 17.7614ZM4.95068 20.681C4.59871 21.4813 4.32473 22.152 4.34179 22.1715C4.38821 22.2244 9.88028 24.7559 9.9654 24.7637C10.0493 24.7712 13.5826 23.2334 13.5788 23.191C13.5762 23.163 5.66291 19.221 5.61581 19.2243C5.60193 19.2253 5.30264 19.8808 4.95068 20.681ZM2.83992 25.4984C2.37762 26.5542 1.99966 27.4769 2 27.5488C2.00034 27.6207 2.05693 27.7465 2.12573 27.8284C2.38192 28.1331 2.30134 28.1582 5.34261 26.8263C6.86452 26.1598 8.093 25.599 8.07252 25.5801C8.0239 25.5351 3.76735 23.5788 3.71809 23.5788C3.69737 23.5788 3.30217 24.4427 2.83992 25.4984Z" fill="#000"/>
</svg>
