<svg width="30" height="30" viewBox="0 0 30 30" fill="none" xmlns="http://www.w3.org/2000/svg">
	<path d="M7.725 25C9.22998 25 10.45 23.78 10.45 22.275C10.45 20.7701 9.22998 19.55 7.725 19.55C6.22002 19.55 5 20.7701 5 22.275C5 23.78 6.22002 25 7.725 25Z" fill="#000" />
	<path d="M5 5V8.5375C13.7875 8.5375 20.9125 15.6625 20.9125 24.45H24.45C24.45 13.7125 15.7375 5 5 5ZM5 12.075V15.6125C9.875 15.6125 13.8375 19.575 13.8375 24.45H17.375C17.375 17.6125 11.8375 12.075 5 12.075Z" fill="#000" />
</svg>
