<svg width="38" height="38" viewBox="0 0 38 38" fill="none" xmlns="http://www.w3.org/2000/svg">
<path d="M18.9998 6.64997C15.7244 6.64997 12.5831 7.95113 10.267 10.2672C7.95096 12.5833 6.6498 15.7245 6.6498 19C6.6498 19.3779 6.49967 19.7404 6.23243 20.0076C5.96519 20.2748 5.60274 20.425 5.2248 20.425C4.84687 20.425 4.48442 20.2748 4.21718 20.0076C3.94994 19.7404 3.7998 19.3779 3.7998 19C3.80011 16.3956 4.46957 13.8351 5.74397 11.5638C7.01837 9.2926 8.85497 7.3869 11.0776 6.02953C13.3002 4.67216 15.8344 3.90863 18.4369 3.81219C21.0395 3.71574 23.6231 4.28961 25.9402 5.47876C28.2572 6.6679 30.2298 8.43243 31.6688 10.6031C33.1078 12.7738 33.9649 15.2778 34.158 17.875C34.351 20.4721 33.8736 23.0754 32.7713 25.4349C31.6691 27.7945 29.979 29.8313 27.8633 31.35H29.9248C30.3027 31.35 30.6652 31.5001 30.9324 31.7673C31.1997 32.0346 31.3498 32.397 31.3498 32.775C31.3498 33.1529 31.1997 33.5154 30.9324 33.7826C30.6652 34.0498 30.3027 34.2 29.9248 34.2H24.2248C23.8469 34.2 23.4844 34.0498 23.2172 33.7826C22.9499 33.5154 22.7998 33.1529 22.7998 32.775V27.075C22.7998 26.697 22.9499 26.3346 23.2172 26.0673C23.4844 25.8001 23.8469 25.65 24.2248 25.65C24.6027 25.65 24.9652 25.8001 25.2324 26.0673C25.4997 26.3346 25.6498 26.697 25.6498 27.075V29.4082C27.9013 27.9702 29.6258 25.8408 30.5645 23.3397C31.5033 20.8385 31.6057 18.1004 30.8564 15.5361C30.1071 12.9718 28.5465 10.7196 26.4087 9.11745C24.271 7.51527 21.6713 6.64947 18.9998 6.64997ZM23.7498 19C23.7498 20.2598 23.2494 21.4679 22.3586 22.3587C21.4678 23.2495 20.2596 23.75 18.9998 23.75C17.74 23.75 16.5318 23.2495 15.641 22.3587C14.7502 21.4679 14.2498 20.2598 14.2498 19C14.2498 17.7402 14.7502 16.532 15.641 15.6412C16.5318 14.7504 17.74 14.25 18.9998 14.25C20.2596 14.25 21.4678 14.7504 22.3586 15.6412C23.2494 16.532 23.7498 17.7402 23.7498 19ZM20.8998 19C20.8998 18.4961 20.6996 18.0128 20.3433 17.6565C19.987 17.3001 19.5037 17.1 18.9998 17.1C18.4959 17.1 18.0126 17.3001 17.6563 17.6565C17.3 18.0128 17.0998 18.4961 17.0998 19C17.0998 19.5039 17.3 19.9872 17.6563 20.3435C18.0126 20.6998 18.4959 20.9 18.9998 20.9C19.5037 20.9 19.987 20.6998 20.3433 20.3435C20.6996 19.9872 20.8998 19.5039 20.8998 19Z" fill="white"/>
</svg>
