<svg width="68" height="68" viewBox="0 0 68 68" fill="none" xmlns="http://www.w3.org/2000/svg">
<path d="M34 25.5C31.7457 25.5 29.5836 26.3955 27.9896 27.9896C26.3955 29.5836 25.5 31.7457 25.5 34C25.5 36.2543 26.3955 38.4163 27.9896 40.0104C29.5836 41.6045 31.7457 42.5 34 42.5C36.2543 42.5 38.4163 41.6045 40.0104 40.0104C41.6045 38.4163 42.5 36.2543 42.5 34C42.5 31.7457 41.6045 29.5836 40.0104 27.9896C38.4163 26.3955 36.2543 25.5 34 25.5ZM53.8333 53.8333H42.5V59.5H53.8333C55.3362 59.5 56.7776 58.903 57.8403 57.8403C58.903 56.7776 59.5 55.3362 59.5 53.8333V42.5H53.8333M53.8333 8.5H42.5V14.1667H53.8333V25.5H59.5V14.1667C59.5 12.6638 58.903 11.2224 57.8403 10.1597C56.7776 9.09702 55.3362 8.5 53.8333 8.5ZM14.1667 14.1667H25.5V8.5H14.1667C12.6638 8.5 11.2224 9.09702 10.1597 10.1597C9.09702 11.2224 8.5 12.6638 8.5 14.1667V25.5H14.1667M14.1667 42.5H8.5V53.8333C8.5 55.3362 9.09702 56.7776 10.1597 57.8403C11.2224 58.903 12.6638 59.5 14.1667 59.5H25.5V53.8333H14.1667V42.5Z" fill="#3A3838"/>
</svg>
