<svg width="20" height="20" viewBox="0 0 20 20" fill="none" xmlns="http://www.w3.org/2000/svg">
	<path d="M9.99978 9.81402C11.89 9.81402 13.4224 7.95279 13.4224 5.65691C13.4224 3.36099 12.9192 1.49976 9.99978 1.49976C7.08026 1.49976 6.57715 3.36099 6.57715 5.65691C6.5772 7.95279 8.1096 9.81402 9.99978 9.81402Z" fill="#000" />
	<path d="M16.4567 15.9937C16.3933 11.9941 15.871 10.8545 11.8738 10.1331C11.8738 10.1331 11.3111 10.85 9.99962 10.85C8.68817 10.85 8.12551 10.1331 8.12551 10.1331C4.17195 10.8466 3.61774 11.9694 3.54489 15.8637C3.53897 16.1817 3.53624 16.1984 3.53516 16.1615C3.53536 16.2307 3.53567 16.3586 3.53567 16.5817C3.53567 16.5817 4.48733 18.5001 9.99967 18.5001C15.512 18.5001 16.4638 16.5817 16.4638 16.5817C16.4638 16.4384 16.4639 16.3386 16.464 16.2709C16.4629 16.2937 16.4607 16.2495 16.4567 15.9937Z" fill="#000" />
	<path d="M14.7497 9.07179C16.285 9.07179 17.5295 7.56015 17.5295 5.69547C17.5295 3.83073 17.1209 2.31909 14.7497 2.31909C14.3509 2.31909 14.0077 2.362 13.7124 2.44211C14.2601 3.45173 14.3352 4.67802 14.3352 5.65688C14.3352 6.7652 14.0347 7.82335 13.4814 8.69948C13.8617 8.93697 14.2927 9.07179 14.7497 9.07179Z" fill="#000" />
	<path d="M19.9932 14.0907C19.9417 10.8423 19.5175 9.91676 16.2711 9.33081C16.2711 9.33081 15.8141 9.91315 14.7489 9.91315C14.7049 9.91315 14.6622 9.91181 14.6201 9.9099C15.2969 10.215 15.9126 10.6399 16.366 11.2616C17.1498 12.3364 17.33 13.7802 17.3672 15.9012C19.5513 15.4696 19.9989 14.5684 19.9989 14.5684C19.9989 14.4509 19.9989 14.3703 19.9991 14.3153C19.9983 14.3346 19.9965 14.2999 19.9932 14.0907Z" fill="#000" />
	<path d="M5.25037 9.07174C5.70747 9.07174 6.1383 8.93692 6.51875 8.69948C5.96546 7.82335 5.66502 6.7652 5.66502 5.65688C5.66502 4.67797 5.74008 3.45168 6.28765 2.44211C5.99246 2.362 5.64931 2.31909 5.25037 2.31909C2.87923 2.31909 2.4707 3.83073 2.4707 5.69547C2.4707 7.5601 3.71523 9.07174 5.25037 9.07174Z" fill="#000" />
	<path d="M5.37891 9.90991C5.33698 9.91181 5.29427 9.91315 5.25012 9.91315C4.18497 9.91315 3.72797 9.33081 3.72797 9.33081C0.481625 9.91676 0.0573376 10.8423 0.00592437 14.0907C0.00257581 14.3 0.000875776 14.3346 0 14.3152C0.000103033 14.3703 0.000206065 14.4509 0.000206065 14.5683C0.000206065 14.5683 0.447882 15.4696 2.63186 15.9012C2.66921 13.7802 2.84931 12.3364 3.63323 11.2615C4.08658 10.6399 4.70215 10.215 5.37891 9.90991Z" fill="#000" />
</svg>
