<svg width="29" height="29" viewBox="0 0 29 29" fill="none" xmlns="http://www.w3.org/2000/svg">
<path d="M25.6447 8.30696C25.2813 7.4654 24.7572 6.70279 24.1019 6.06182C23.446 5.41894 22.6728 4.90804 21.8242 4.55693C20.9442 4.1914 20.0005 4.0043 19.0476 4.00649C17.7108 4.00649 16.4066 4.37254 15.2732 5.06398C15.002 5.22938 14.7444 5.41106 14.5004 5.609C14.2563 5.41106 13.9988 5.22938 13.7276 5.06398C12.5942 4.37254 11.2899 4.00649 9.95317 4.00649C8.99058 4.00649 8.05781 4.19087 7.17657 4.55693C6.32515 4.90942 5.55779 5.41648 4.89889 6.06182C4.2427 6.70207 3.71851 7.46486 3.35604 8.30696C2.97914 9.18278 2.78662 10.1128 2.78662 11.07C2.78662 11.9729 2.971 12.9138 3.33706 13.871C3.64346 14.6709 4.08273 15.5006 4.64401 16.3385C5.53339 17.6644 6.75629 19.0473 8.27474 20.4491C10.791 22.7729 13.2829 24.3781 13.3887 24.4432L14.0313 24.8554C14.316 25.037 14.6821 25.037 14.9668 24.8554L15.6094 24.4432C15.7151 24.3754 18.2043 22.7729 20.7233 20.4491C22.2418 19.0473 23.4647 17.6644 24.354 16.3385C24.9153 15.5006 25.3573 14.6709 25.661 13.871C26.0271 12.9138 26.2114 11.9729 26.2114 11.07C26.2141 10.1128 26.0216 9.18278 25.6447 8.30696ZM14.5004 22.7105C14.5004 22.7105 4.84738 16.5256 4.84738 11.07C4.84738 8.30696 7.13319 6.06724 9.95317 6.06724C11.9353 6.06724 13.6544 7.17354 14.5004 8.78961C15.3464 7.17354 17.0655 6.06724 19.0476 6.06724C21.8676 6.06724 24.1534 8.30696 24.1534 11.07C24.1534 16.5256 14.5004 22.7105 14.5004 22.7105Z" fill="white"/>
</svg>
