<svg width="67" height="67" viewBox="0 0 67 67" fill="none" xmlns="http://www.w3.org/2000/svg">
<path fill-rule="evenodd" clip-rule="evenodd" d="M33.5 67C52.0015 67 67 52.0015 67 33.5C67 14.9985 52.0015 0 33.5 0C14.9985 0 0 14.9985 0 33.5C0 52.0015 14.9985 67 33.5 67ZM62.9544 33.4999C62.9544 49.7672 49.7672 62.9545 33.4999 62.9545C17.2326 62.9545 4.04533 49.7672 4.04533 33.4999C4.04533 17.2326 17.2326 4.04538 33.4999 4.04538C49.7672 4.04538 62.9544 17.2326 62.9544 33.4999ZM63.9544 33.4999C63.9544 50.3195 50.3195 63.9545 33.4999 63.9545C16.6803 63.9545 3.04533 50.3195 3.04533 33.4999C3.04533 16.6804 16.6803 3.04538 33.4999 3.04538C50.3195 3.04538 63.9544 16.6804 63.9544 33.4999Z" fill="white"/>
<path fill-rule="evenodd" clip-rule="evenodd" d="M18.0134 20.7947C17.4886 21.1611 17.5239 20.3276 17.5239 32.3551C17.5239 43.0176 17.5256 43.1425 17.6677 43.4371C17.7467 43.6009 17.8949 43.7972 17.997 43.8731C18.1035 43.9524 18.9769 44.2119 20.0471 44.4822C25.0047 45.7345 26.5347 46.1166 26.5928 46.1166C26.6292 46.1166 26.656 41.1427 26.656 34.3713V23.5652C26.656 23.0124 26.2817 22.5297 25.7464 22.392C25.2461 22.2633 23.5111 21.8108 21.891 21.3866C20.1942 20.9424 18.8022 20.6154 18.6079 20.6154C18.3674 20.6154 18.1966 20.6669 18.0134 20.7947ZM33.398 21.8281C31.0044 22.326 29.0219 22.7349 28.9925 22.7369C28.9631 22.7388 28.939 28.0204 28.939 34.4737C28.939 45.6117 28.9454 46.2053 29.0639 46.1747C29.1326 46.157 31.1872 45.733 33.6299 45.2326C36.215 44.703 38.0711 42.4281 38.0711 39.7893V32.6156V21.0692C38.0711 20.9816 37.998 20.9118 37.9105 20.9157C37.8222 20.9197 35.7916 21.3303 33.398 21.8281ZM40.3545 32.6515L40.3548 40.3735C40.3549 42.7422 41.9536 44.8124 44.2453 45.4114C48.3972 46.4966 48.5644 46.5248 48.9726 46.2117C49.0736 46.1343 49.2225 45.9799 49.3034 45.8686C49.4502 45.6666 49.4505 45.646 49.469 34.7776C49.4874 23.9734 49.4864 23.8866 49.3431 23.5895C49.0773 23.0385 49.4181 23.1507 43.4435 21.6478C41.8269 21.2412 40.4705 20.9085 40.4292 20.9085C40.3769 20.9085 40.3542 24.4795 40.3545 32.6515Z" fill="url(#paint0_linear_744_17)"/>
<defs>
<linearGradient id="paint0_linear_744_17" x1="17.5234" y1="33.5" x2="49.4773" y2="33.5" gradientUnits="userSpaceOnUse">
<stop stop-color="#E6733D"/>
<stop offset="1" stop-color="#D84440"/>
</linearGradient>
</defs>
</svg>
