<svg width="25" height="25" viewBox="0 0 25 25" fill="none" xmlns="http://www.w3.org/2000/svg">
<path fill-rule="evenodd" clip-rule="evenodd" d="M10.7668 0.0728145C9.43194 0.31743 8.18655 0.994469 7.25104 1.98414C5.05045 4.31208 4.90846 7.90603 6.91836 10.4054C9.5424 13.6685 14.5608 13.5575 17.0621 10.1809C17.9912 8.9268 18.4447 7.29531 18.2834 5.78803C18.117 4.23401 17.5079 2.94445 16.4235 1.85002C15.5142 0.932358 14.2966 0.291678 13.0481 0.073908C12.486 -0.0241786 11.299 -0.0247254 10.7668 0.0728145ZM18.1724 12.8444C17.2889 12.953 16.1915 13.3695 15.4344 13.8838C14.9914 14.1848 14.353 14.7957 14.0137 15.2432C13.6571 15.7136 13.1794 16.6838 13.0107 17.2808C12.6385 18.5971 12.7357 20.0771 13.2765 21.3284C14.0424 23.1008 15.5039 24.3465 17.4439 24.8806C17.8093 24.9812 18.0195 24.9986 18.8829 24.9999C19.8126 25.0013 19.938 24.9896 20.4405 24.8539C21.0815 24.6808 21.8479 24.3242 22.4005 23.942C22.8771 23.6125 23.5564 22.9388 23.8944 22.4604C24.2549 21.9504 24.6589 21.0781 24.8212 20.4596C25.0087 19.7445 25.0558 18.6206 24.9288 17.8895C24.4973 15.4058 22.5374 13.392 20.102 12.9298C19.5247 12.8203 18.6751 12.7827 18.1724 12.8444ZM9.91967 13.8861C7.65706 14.0845 5.50703 14.6468 3.77112 15.4941C2.86802 15.9349 2.15566 16.411 1.57108 16.9646C0.820245 17.6755 0.39941 18.2992 0.128983 19.1017C0.00606661 19.4664 0 19.554 0 20.9606V22.4369L0.145926 22.7483C0.331804 23.1449 0.682189 23.4955 1.09603 23.6988L1.421 23.8584L7.48162 23.873L13.5423 23.8876L13.397 23.709C12.1431 22.1674 11.5492 20.4621 11.6304 18.6369C11.704 16.9835 12.2868 15.4747 13.3248 14.2507L13.6279 13.8932L13.4271 13.86C13.1404 13.8125 10.5375 13.832 9.91967 13.8861ZM21.6708 16.737C22.0788 17.0148 22.2124 17.4544 22.0083 17.8482C21.9459 17.9686 21.2172 18.7391 20.349 19.6026C18.6601 21.2823 18.5712 21.3473 18.1268 21.2274C17.8247 21.1458 15.9491 19.8712 15.8204 19.66C15.689 19.4444 15.6808 19.0766 15.8017 18.8218C15.932 18.5472 16.1709 18.4004 16.5297 18.3744C16.8325 18.3525 16.8387 18.3552 17.5047 18.7953C17.8733 19.039 18.193 19.2384 18.2151 19.2384C18.2372 19.2384 18.7962 18.6946 19.4573 18.0299C20.1183 17.3653 20.7329 16.7749 20.8231 16.7179C21.0543 16.5719 21.4411 16.5806 21.6708 16.737Z" fill="#E6733D"/>
</svg>
