<svg width="25" height="27" viewBox="0 0 25 27" fill="none" xmlns="http://www.w3.org/2000/svg">
<g clip-path="url(#clip0_360_201)">
<path d="M12.5 27C15.8152 27 18.9946 25.5777 21.3388 23.0459C23.683 20.5142 25 17.0804 25 13.5C25 9.91958 23.683 6.4858 21.3388 3.95406C18.9946 1.42232 15.8152 0 12.5 0C9.18479 0 6.00537 1.42232 3.66117 3.95406C1.31696 6.4858 0 9.91958 0 13.5C0 17.0804 1.31696 20.5142 3.66117 23.0459C6.00537 25.5777 9.18479 27 12.5 27ZM13.9531 11.1172L12.3906 19.0569C12.2812 19.6307 12.4359 19.9564 12.8656 19.9564C13.1688 19.9564 13.6266 19.8382 13.9375 19.5413L13.8 20.2432C13.3516 20.8271 12.3625 21.2524 11.5109 21.2524C10.4125 21.2524 9.94531 20.5402 10.2484 19.0266L11.4016 13.1743C11.5016 12.6799 11.4109 12.501 10.9531 12.3812L10.2484 12.2445L10.3766 11.6016L13.9547 11.1172H13.9531ZM12.5 9.28125C12.0856 9.28125 11.6882 9.10346 11.3951 8.78699C11.1021 8.47052 10.9375 8.0413 10.9375 7.59375C10.9375 7.1462 11.1021 6.71697 11.3951 6.40051C11.6882 6.08404 12.0856 5.90625 12.5 5.90625C12.9144 5.90625 13.3118 6.08404 13.6049 6.40051C13.8979 6.71697 14.0625 7.1462 14.0625 7.59375C14.0625 8.0413 13.8979 8.47052 13.6049 8.78699C13.3118 9.10346 12.9144 9.28125 12.5 9.28125Z" fill="white"/>
</g>
<defs>
<clipPath id="clip0_360_201">
<rect width="25" height="27" fill="white"/>
</clipPath>
</defs>
</svg>
