<svg width="16" height="16" viewBox="0 0 16 16" fill="none" xmlns="http://www.w3.org/2000/svg">
	<g clip-path="url(#clip0_33_726)">
		<path d="M0 7.54805C0.0390625 7.24062 0.0675782 6.93047 0.125781 6.62617C0.611458 4.09753 1.98268 2.21185 4.23945 0.969138C5.50781 0.272653 6.8793 -0.0445346 8.32031 0.0437467C11.3176 0.228903 13.5641 1.65117 15.0297 4.26914C15.7293 5.50963 16.0516 6.92739 15.957 8.34844C15.7711 11.352 14.3437 13.5984 11.7187 15.0668C10.7457 15.6117 9.6875 15.8988 8.57187 15.9746C8.53121 15.9803 8.491 15.9889 8.45156 16.0004H7.51406C7.47466 15.9889 7.43444 15.9804 7.39375 15.975C6.41406 15.9106 5.47422 15.6766 4.59531 15.2434C2.14844 14.0359 0.65 12.0902 0.125781 9.40547C0.0667969 9.10156 0.0410156 8.79102 0 8.48398V7.54805ZM7.9875 15.2781C11.9922 15.2715 15.2492 12.0121 15.2449 8.0125C15.2406 4.01289 11.9805 0.750778 7.98125 0.755466C3.97617 0.760153 0.719531 4.01992 0.724219 8.02109C0.728906 12.0242 3.98828 15.2809 7.9875 15.2781Z" fill="white" />
		<path d="M9.71319 11.1594C9.67413 11.3129 9.64483 11.4383 9.60772 11.5614C9.60139 11.5773 9.59194 11.5918 9.57994 11.604C9.56793 11.6162 9.5536 11.6259 9.5378 11.6325C8.99092 11.8407 8.44795 12.0622 7.83819 12.0145C7.34483 11.9754 6.86553 11.6665 6.76436 11.2333C6.71267 11.0061 6.71174 10.7702 6.76162 10.5426C6.89248 9.96685 7.071 9.40201 7.21748 8.82935C7.29625 8.54491 7.35242 8.25468 7.38545 7.96139C7.41905 7.59264 7.23584 7.42389 6.8624 7.43404C6.74829 7.43861 6.63482 7.45338 6.52334 7.47818C6.41279 7.50123 6.30537 7.53951 6.17529 7.57701C6.21123 7.43053 6.24131 7.29654 6.2792 7.16412C6.28468 7.14743 6.29355 7.13205 6.30524 7.11895C6.31694 7.10584 6.33121 7.09529 6.34717 7.08795C6.89404 6.89263 7.43076 6.66451 8.0335 6.70279C8.54131 6.73521 9.01006 7.04576 9.0835 7.49732C9.12679 7.78944 9.11352 8.08716 9.04444 8.37428C8.88819 9.04537 8.68272 9.70513 8.50616 10.3719C8.47153 10.5184 8.45345 10.6683 8.45225 10.8188C8.44327 11.077 8.55616 11.2133 8.81319 11.2633C9.08012 11.3123 9.35534 11.2876 9.60928 11.1919C9.63428 11.1833 9.65928 11.1766 9.71319 11.1594Z" fill="white" />
		<path d="M9.80002 4.92586C9.79494 5.31219 9.6176 5.57039 9.31174 5.74305C9.11451 5.85582 8.88673 5.9035 8.66082 5.87931C8.43492 5.85511 8.22241 5.76027 8.05353 5.60828C7.63517 5.24266 7.66291 4.60125 8.109 4.25438C8.70353 3.79344 9.60705 4.06219 9.77424 4.75047C9.78623 4.80838 9.79483 4.86695 9.80002 4.92586Z" fill="white" />
	</g>
	<defs>
		<clipPath id="clip0_33_726">
			<rect width="16" height="16" fill="white" />
		</clipPath>
	</defs>
</svg>
