<svg width="20" height="20" viewBox="0 0 20 20" fill="none" xmlns="http://www.w3.org/2000/svg">
<path d="M18.9971 6.14967C18.9314 5.12787 18.7118 4.29782 17.9959 3.44341C16.5632 1.73422 13.2704 1.44967 11.7954 3.09508C11.5389 3.3371 11.2964 3.6286 11.0527 3.97693L10.5011 4.76523L9.94961 3.97693C9.70513 3.62899 9.46183 3.3371 9.20492 3.09508C7.73108 1.44967 4.43788 1.73383 3.00524 3.44341C2.28892 4.29821 2.06855 5.12825 2.00286 6.14967C1.90958 9.18764 4.12617 11.6202 4.39979 11.9759C5.90394 13.7311 7.54491 15.3912 9.21152 16.9202C9.51313 17.1831 9.77354 17.4008 10.0339 17.6176C10.1906 17.7452 10.3449 17.8736 10.5007 18C10.6558 17.8736 10.8105 17.7452 10.9656 17.6176C11.2272 17.4008 11.4876 17.1831 11.7884 16.9202C13.4554 15.3912 15.0964 13.7311 16.6005 11.9759C16.8749 11.619 19.0915 9.18648 18.9971 6.14967Z" fill="#DA2121"/>
<path d="M17.9983 4.98793C17.9968 4.80127 17.9686 4.61586 17.9146 4.43768C17.8656 4.27489 17.7933 4.12054 17.7 3.97972C17.1538 3.1531 15.9641 2.85524 14.9698 3.06465C14.5824 3.16081 14.194 3.31098 14.0153 3.69233C13.9543 3.85601 14.0827 3.93454 14.2799 3.92462C14.9949 3.84223 15.7865 3.91635 16.4189 4.23295C16.5765 4.3123 16.7236 4.40654 16.8584 4.51731C17.3121 4.87909 17.5082 5.44203 17.5978 6C17.8177 5.95426 17.9384 5.68175 17.9665 5.439C17.9938 5.29039 18.0045 5.13905 17.9983 4.98793Z" fill="#F29F9F"/>
</svg>
