<svg width="22" height="22" viewBox="0 0 22 22" fill="none" xmlns="http://www.w3.org/2000/svg">
<path d="M17.4163 8.24992C17.4163 7.40727 17.2504 6.57287 16.9279 5.79437C16.6054 5.01586 16.1328 4.30849 15.5369 3.71265C14.9411 3.11681 14.2337 2.64416 13.4552 2.32169C12.6767 1.99922 11.8423 1.83325 10.9997 1.83325C10.157 1.83325 9.32263 1.99922 8.54412 2.32169C7.76562 2.64416 7.05825 3.11681 6.46241 3.71265C5.86656 4.30849 5.39391 5.01586 5.07145 5.79437C4.74898 6.57287 4.58301 7.40727 4.58301 8.24992C4.58301 9.52134 4.95792 10.7038 5.59592 11.7012H5.58859L10.9997 20.1666L16.4108 11.7012H16.4043C17.0651 10.6714 17.4164 9.4735 17.4163 8.24992ZM10.9997 10.9999C10.2703 10.9999 9.57086 10.7102 9.05513 10.1945C8.53941 9.67874 8.24967 8.97926 8.24967 8.24992C8.24967 7.52057 8.53941 6.8211 9.05513 6.30538C9.57086 5.78965 10.2703 5.49992 10.9997 5.49992C11.729 5.49992 12.4285 5.78965 12.9442 6.30538C13.4599 6.8211 13.7497 7.52057 13.7497 8.24992C13.7497 8.97926 13.4599 9.67874 12.9442 10.1945C12.4285 10.7102 11.729 10.9999 10.9997 10.9999Z" fill="#000"/>
</svg>
