<svg width="20" height="20" viewBox="0 0 20 20" fill="none" xmlns="http://www.w3.org/2000/svg">
	<path fill-rule="evenodd" clip-rule="evenodd" d="M11.8749 2.5C11.7091 2.5 11.5502 2.43415 11.433 2.31694C11.3158 2.19973 11.2499 2.04076 11.2499 1.875C11.2499 1.70924 11.3158 1.55027 11.433 1.43306C11.5502 1.31585 11.7091 1.25 11.8749 1.25H18.1249C18.2907 1.25 18.4496 1.31585 18.5669 1.43306C18.6841 1.55027 18.7499 1.70924 18.7499 1.875V8.125C18.7499 8.29076 18.6841 8.44973 18.5669 8.56694C18.4496 8.68415 18.2907 8.75 18.1249 8.75C17.9592 8.75 17.8002 8.68415 17.683 8.56694C17.5658 8.44973 17.4999 8.29076 17.4999 8.125V3.38375L12.3387 8.545C13.3534 9.78649 13.8522 11.3705 13.7319 12.9694C13.6116 14.5683 12.8813 16.0599 11.6922 17.1355C10.503 18.2111 8.94598 18.7886 7.34304 18.7484C5.7401 18.7083 4.2139 18.0536 3.0801 16.9198C1.94629 15.786 1.29162 14.2598 1.25147 12.6569C1.21133 11.0539 1.78879 9.49687 2.86442 8.30773C3.94005 7.1186 5.43157 6.38835 7.03049 6.26802C8.62941 6.14769 10.2134 6.64649 11.4549 7.66125L16.6162 2.5H11.8749ZM7.49991 7.5C6.17383 7.5 4.90206 8.02678 3.96438 8.96447C3.02669 9.90215 2.49991 11.1739 2.49991 12.5C2.49991 13.8261 3.02669 15.0979 3.96438 16.0355C4.90206 16.9732 6.17383 17.5 7.49991 17.5C8.82599 17.5 10.0978 16.9732 11.0354 16.0355C11.9731 15.0979 12.4999 13.8261 12.4999 12.5C12.4999 11.1739 11.9731 9.90215 11.0354 8.96447C10.0978 8.02678 8.82599 7.5 7.49991 7.5Z" fill="#000" />
</svg>
