<svg width="51" height="51" viewBox="0 0 51 51" fill="none" xmlns="http://www.w3.org/2000/svg">
<circle cx="25.5" cy="25.5" r="25.5" fill="url(#paint0_linear_552_390)"/>
<path fill-rule="evenodd" clip-rule="evenodd" d="M37.0974 12.8439C36.1649 13.0405 34.6196 13.7 33.3278 14.4527C32.3487 15.0233 31.5315 15.5554 31.4978 15.6443C31.4755 15.7031 31.3933 16.2719 31.315 16.9083C31.2369 17.5447 31.156 18.1205 31.1355 18.1878C31.1043 18.29 31.0254 18.1609 30.6564 17.4035C30.4135 16.9049 30.1946 16.4969 30.17 16.4969C30.105 16.4969 28.5016 17.7022 27.6471 18.3934C26.4154 19.3897 25.2421 20.4327 24.1402 21.5109L23.0891 22.5394L22.5189 25.0336C22.2053 26.4054 21.9218 27.6313 21.8891 27.7578C21.8308 27.9825 21.8225 27.9533 21.5287 26.4979C21.3634 25.6784 21.2103 24.952 21.1886 24.8837C21.1528 24.7708 21.1113 24.8125 20.7274 25.3466C20.4954 25.6694 20.2225 26.0608 20.1209 26.2164L19.9363 26.4992L19.6913 28.4534C19.5564 29.5282 19.4339 30.4423 19.4189 30.4847C19.403 30.5296 19.2202 30.2281 18.9822 29.7648C18.7409 29.2949 18.5613 28.9993 18.5448 29.0448C18.4759 29.2342 18.3019 29.8774 18.2179 30.2533C18.1015 30.7737 18.0968 31.7471 18.2089 32.0789L18.2871 32.3103L15.5195 35.037C12.5615 37.9512 12.6052 37.9003 12.8565 38.1472C12.9141 38.2037 13.0143 38.25 13.0793 38.25C13.2263 38.25 15.7314 37.3194 15.9364 37.1886C16.019 37.136 16.8434 36.3026 17.7684 35.3365L19.4503 33.5801L19.7791 33.6847C20.4373 33.8942 21.4507 33.8151 22.6733 33.4588L23.0398 33.352L22.2414 32.9605C21.8023 32.7452 21.4429 32.5558 21.4429 32.5397C21.4429 32.5235 22.3677 32.3988 23.4979 32.2626L25.5529 32.0148L25.9456 31.7558C26.8671 31.1477 27.3042 30.8218 27.2412 30.7897C27.2053 30.7715 26.4762 30.6209 25.6211 30.4551C24.7658 30.2893 24.0723 30.1477 24.0799 30.1403C24.0874 30.1329 25.2936 29.8594 26.7604 29.5325C28.2271 29.2057 29.4663 28.9266 29.514 28.9124C29.6257 28.8792 31.1339 27.4105 31.9144 26.5749C33.1273 25.2765 34.3913 23.7691 35.4492 22.3594C36.0386 21.5741 37.2741 19.7899 37.2465 19.7639C37.2365 19.7545 36.8663 19.5777 36.4237 19.3711C35.8157 19.0872 35.643 18.9862 35.7169 18.9579C35.7707 18.9372 36.2505 18.8712 36.7833 18.8112C37.316 18.7511 37.8014 18.6823 37.862 18.6582C37.9954 18.6052 38.7576 17.1445 39.0703 16.3426C39.423 15.4385 39.5229 15.0036 39.5249 14.3627C39.5271 13.7107 39.4697 13.538 39.1305 13.1766C38.7415 12.7621 38.0344 12.6464 37.0974 12.8439Z" fill="white"/>
<path fill-rule="evenodd" clip-rule="evenodd" d="M23.5871 34.2656C23.7925 34.2656 23.959 34.4321 23.959 34.6375V37.2406H26.5621C26.7675 37.2406 26.934 37.4071 26.934 37.6125C26.934 37.8179 26.7675 37.9844 26.5621 37.9844H23.959V40.5875C23.959 40.7929 23.7925 40.9594 23.5871 40.9594C23.3817 40.9594 23.2152 40.7929 23.2152 40.5875V37.9844H20.6121C20.4067 37.9844 20.2402 37.8179 20.2402 37.6125C20.2402 37.4071 20.4067 37.2406 20.6121 37.2406H23.2152V34.6375C23.2152 34.4321 23.3817 34.2656 23.5871 34.2656Z" fill="white"/>
<defs>
<linearGradient id="paint0_linear_552_390" x1="3.32482e-07" y1="25.5" x2="51" y2="25.5" gradientUnits="userSpaceOnUse">
<stop stop-color="#E6733D"/>
<stop offset="1" stop-color="#D84440"/>
</linearGradient>
</defs>
</svg>
