<svg width="29" height="24" viewBox="0 0 29 24" fill="none" xmlns="http://www.w3.org/2000/svg">
<path fill-rule="evenodd" clip-rule="evenodd" d="M6.55511 0.0475583C5.41318 0.266613 4.46883 0.854793 3.80632 1.75956C3.55199 2.1069 3.30456 2.63386 3.16952 3.11578C3.06066 3.50428 3.04245 3.65508 3.04305 4.1635C3.04449 5.3029 3.41176 6.20077 4.21936 7.03921C5.50458 8.37341 7.50331 8.7026 9.15983 7.85288L9.49458 7.68116L9.54647 7.4299C9.75725 6.40918 10.2445 5.53886 11.038 4.76584L11.4982 4.3175L11.4661 3.89784C11.3013 1.74257 9.56764 0.087075 7.38898 0.00466119C7.06831 -0.00749074 6.75918 0.00845291 6.55511 0.0475583ZM21.0551 0.0475583C19.9988 0.250212 19.1338 0.754517 18.474 1.55243C17.9708 2.1609 17.604 3.04735 17.5437 3.80013L17.5217 4.07629L17.7792 4.25381C18.3304 4.63363 19.0133 5.37307 19.2945 5.8946C19.3511 5.99972 19.4207 6.12603 19.4492 6.17532C19.6209 6.47305 19.8056 7.05812 19.9533 7.77252L19.9911 7.95526L20.4305 8.10076C21.0762 8.31456 21.7143 8.37546 22.3192 8.28099C23.0962 8.15965 23.6597 7.93155 24.2549 7.49746C25.0861 6.89128 25.5865 6.13745 25.8767 5.05433C25.9962 4.608 25.986 3.68637 25.856 3.18129C25.6924 2.54601 25.3644 1.92992 24.9137 1.41118C24.5811 1.02844 23.9117 0.526646 23.5574 0.394528C23.4813 0.366204 23.3563 0.314398 23.2794 0.27945C22.7573 0.0418936 21.6736 -0.0710828 21.0551 0.0475583ZM13.8746 4.41156C12.0235 4.81719 10.7033 6.26075 10.5175 8.08244C10.3478 9.74685 11.1939 11.3257 12.6933 12.1429C12.8589 12.2331 13.0465 12.322 13.1102 12.3405C13.1739 12.3589 13.2886 12.4009 13.365 12.4339C13.8487 12.6427 14.9169 12.7089 15.5655 12.5703C16.9874 12.2665 18.1416 11.2903 18.6725 9.94251C18.8131 9.58567 18.9473 8.89183 18.9473 8.52192C18.9473 7.28823 18.3506 6.04385 17.3917 5.278C16.3905 4.47835 15.0626 4.15125 13.8746 4.41156ZM4.76684 8.71215C3.21868 8.87511 1.68571 9.85991 0.818208 11.2488C0.472802 11.8018 0.0926518 12.8546 0.0926518 13.2582C0.0926518 13.3191 0.0718051 13.3688 0.0463259 13.3688C0.0159824 13.3688 0 14.2427 0 15.8991V18.4293L0.127396 18.4524C0.197487 18.4651 0.702995 18.5979 1.2508 18.7475C2.40695 19.0633 3.3281 19.259 4.40096 19.4167C5.03025 19.5092 6.16051 19.6302 6.37569 19.628C6.41229 19.6276 6.43531 19.2961 6.45273 18.5197C6.4702 17.7388 6.50008 17.3107 6.55395 17.0692C6.64795 16.6479 6.92391 15.8312 7.05557 15.5845C7.71252 14.3538 8.5045 13.5031 9.60025 12.851C9.79727 12.7338 9.96775 12.6379 9.97906 12.6379C9.99036 12.6379 10.1596 12.565 10.3552 12.4759C10.5508 12.3868 10.7712 12.302 10.845 12.2874C10.9188 12.2729 10.9792 12.2437 10.9792 12.2227C10.9792 12.2017 10.8657 12.059 10.7269 11.9056C9.99708 11.099 9.5132 9.95028 9.4382 8.8461L9.42732 8.6862L7.27316 8.68063C6.08838 8.67757 4.96053 8.69173 4.76684 8.71215ZM19.9974 8.69383C19.9804 8.71055 19.9665 8.82399 19.9665 8.94587C19.9665 9.2567 19.7994 9.98203 19.634 10.3894C19.3673 11.0462 19.0623 11.5314 18.6114 12.0165C18.5159 12.1193 18.4377 12.2138 18.4377 12.2265C18.4377 12.2392 18.5638 12.2893 18.7179 12.3379C19.1568 12.4761 19.9353 12.8817 20.3602 13.1934C20.8395 13.545 21.5397 14.2618 21.8967 14.7662C22.1068 15.0631 22.517 15.8879 22.6476 16.2759C22.9065 17.045 22.9405 17.2828 22.9639 18.4854C22.9759 19.101 23.0009 19.6204 23.0195 19.6397C23.0381 19.6589 23.3125 19.6534 23.6293 19.6272C25.7586 19.4517 27.3414 19.0829 28.78 18.4271L29 18.3268V15.8478C29 14.2256 28.984 13.3688 28.9537 13.3688C28.9282 13.3688 28.9073 13.3151 28.9073 13.2494C28.9073 12.9318 28.6468 12.1225 28.3649 11.5644C27.5985 10.0469 25.9004 8.88913 24.179 8.71032C23.6944 8.65998 20.0462 8.64559 19.9974 8.69383ZM12.0679 13.0561C11.966 13.0798 11.7471 13.1302 11.5815 13.168C10.6671 13.3765 9.8159 13.8622 9.10303 14.582C8.59794 15.092 8.52934 15.1759 8.28284 15.5845C8.03198 16.0003 7.89912 16.2799 7.76677 16.6707C7.50859 17.4331 7.49298 17.623 7.47315 20.2442C7.4631 21.5759 7.4713 22.6867 7.4914 22.7126C7.53588 22.7699 9.01909 23.1888 9.84355 23.377C13.0642 24.1118 16.1989 24.1979 18.9936 23.6283C20.0537 23.4122 21.1071 23.0738 21.8103 22.7235L21.917 22.6704L21.9026 20.0411L21.8884 17.4118L21.7632 16.9985C21.409 15.8291 20.8967 15.0342 20.0105 14.2792C19.2666 13.6454 18.5356 13.2994 17.5141 13.0975C17.0678 13.0093 16.8875 13.0036 14.6456 13.008C13.3206 13.0107 12.1705 13.0321 12.0679 13.0561Z" fill="#E6733D"/>
</svg>
