<svg width="30" height="30" viewBox="0 0 30 30" fill="none" xmlns="http://www.w3.org/2000/svg">
<path d="M9.04526 20.9285C7.49666 20.9285 6.11916 19.937 5.61896 18.4608L5.58513 18.3496C5.46716 17.9587 5.41775 17.6299 5.41775 17.301V10.7056L3.07102 18.5391C2.7692 19.6913 3.45697 20.8858 4.61094 21.2041L19.569 25.21C19.7556 25.2583 19.9423 25.2815 20.1262 25.2815C21.0896 25.2815 21.9699 24.6421 22.2166 23.6998L23.0881 20.9285H9.04526Z" fill="#3ED15E"/>
<path d="M11.7052 10.7716C12.7722 10.7716 13.6398 9.90383 13.6398 8.83683C13.6398 7.76983 12.7722 6.9021 11.7052 6.9021C10.6382 6.9021 9.77051 7.76983 9.77051 8.83683C9.77051 9.90383 10.6382 10.7716 11.7052 10.7716Z" fill="#3ED15E"/>
<path d="M23.7975 4H9.28743C7.95456 4 6.86914 5.08542 6.86914 6.41846V17.0591C6.86914 18.3921 7.95456 19.4775 9.28743 19.4775H23.7975C25.1305 19.4775 26.216 18.3921 26.216 17.0591V6.41846C26.216 5.08542 25.1305 4 23.7975 4ZM9.28743 5.93474H23.7975C24.0646 5.93474 24.2812 6.15136 24.2812 6.41846V13.2856L21.2255 9.71989C20.9013 9.33978 20.4321 9.13662 19.9282 9.12511C19.4271 9.12794 18.957 9.35041 18.6359 9.73548L15.0431 14.0478L13.8727 12.8802C13.2111 12.2186 12.1344 12.2186 11.4737 12.8802L8.80388 15.5491V6.41846C8.80388 6.15136 9.0205 5.93474 9.28743 5.93474Z" fill="#3ED15E"/>
</svg>
