<svg width="15" height="15" viewBox="0 0 15 15" fill="none" xmlns="http://www.w3.org/2000/svg">
<circle cx="7.5" cy="7.5" r="7.5" fill="#303030"/>
<path d="M4.36352 4.08154C4.2704 4.08154 4.17727 4.11696 4.10652 4.18825C3.96449 4.33028 3.96449 4.56055 4.10652 4.70258L10.4483 11.0443C10.5903 11.1864 10.8206 11.1864 10.9626 11.0443C11.1047 10.9023 11.1047 10.672 10.9626 10.5299L4.62095 4.18825C4.54967 4.11741 4.45655 4.08154 4.36352 4.08154Z" fill="white"/>
<path d="M10.7057 4.08154C10.6126 4.08154 10.5196 4.11696 10.4487 4.18825L4.10652 10.5299C3.96449 10.672 3.96449 10.9023 4.10652 11.0443C4.24856 11.1864 4.47883 11.1864 4.62095 11.0443L10.9626 4.70258C11.1047 4.56055 11.1047 4.33028 10.9626 4.18825C10.8913 4.11741 10.7983 4.08154 10.7057 4.08154Z" fill="white"/>
</svg>
