<svg width="42" height="42" viewBox="0 0 42 42" fill="none" xmlns="http://www.w3.org/2000/svg">
	<path d="M40.3699 21.1566C40.4028 20.1037 39.85 19.1253 38.9329 18.6004L17.5608 6.34474C16.6038 5.78058 15.4627 5.82691 14.5401 6.43246C13.6007 7.04818 13.0983 8.54559 13.3378 9.6381L15.199 18.1186C15.3901 18.9883 16.1539 19.6121 17.0455 19.6245L29.0602 19.8066C29.6757 19.8055 30.1655 20.3136 30.1419 20.9286C30.129 21.5333 29.6284 22.0159 29.013 22.017L16.987 21.8254C16.0955 21.8108 15.3056 22.409 15.0775 23.2723L12.836 31.7115C12.5644 32.7086 12.835 33.714 13.5289 34.4337C13.6105 34.5184 13.7024 34.6137 13.7947 34.6881C14.6971 35.411 15.8943 35.523 16.9278 34.9963L38.8042 23.6465C39.7427 23.1705 40.337 22.2095 40.3699 21.1566Z" fill="white" />
</svg>
