<svg width="20" height="20" viewBox="0 0 20 20" fill="none" xmlns="http://www.w3.org/2000/svg">
<g clip-path="url(#clip0_726_558)">
<path d="M18.3332 8.73326L16.4721 8.1777C16.3434 7.72843 16.1665 7.29442 15.9443 6.88326L16.8555 5.1777C16.8896 5.11332 16.9022 5.03964 16.8912 4.96758C16.8801 4.89552 16.8462 4.82893 16.7943 4.7777L15.4666 3.44437C15.4153 3.39252 15.3487 3.35857 15.2767 3.34756C15.2046 3.33655 15.1309 3.34907 15.0666 3.38326L13.3721 4.28881C12.9569 4.05584 12.5172 3.86953 12.061 3.73326L11.5055 1.89437C11.482 1.8266 11.4376 1.76803 11.3787 1.7271C11.3198 1.68617 11.2494 1.66498 11.1777 1.66659H9.2999C9.22776 1.66692 9.1576 1.69027 9.09965 1.73324C9.0417 1.77621 8.99897 1.83655 8.97768 1.90548L8.42212 3.73881C7.96213 3.87435 7.51866 4.06069 7.0999 4.29437L5.43324 3.39437C5.36886 3.36018 5.29517 3.34766 5.22311 3.35867C5.15106 3.36968 5.08447 3.40363 5.03324 3.45548L3.68324 4.77214C3.63138 4.82338 3.59744 4.88997 3.58643 4.96202C3.57542 5.03408 3.58794 5.10777 3.62212 5.17214L4.52212 6.83881C4.28882 7.25581 4.1025 7.6974 3.96657 8.15548L2.12768 8.71103C2.05875 8.73232 1.99841 8.77505 1.95544 8.83301C1.91248 8.89096 1.88913 8.96111 1.88879 9.03326V10.911C1.88913 10.9832 1.91248 11.0533 1.95544 11.1113C1.99841 11.1692 2.05875 11.212 2.12768 11.2333L3.97768 11.7888C4.11509 12.2393 4.30139 12.6733 4.53324 13.0833L3.62212 14.8277C3.58794 14.8921 3.57542 14.9658 3.58643 15.0378C3.59744 15.1099 3.63138 15.1765 3.68324 15.2277L5.01101 16.5555C5.06225 16.6073 5.12883 16.6413 5.20089 16.6523C5.27295 16.6633 5.34663 16.6508 5.41101 16.6166L7.12768 15.6999C7.53377 15.919 7.96213 16.0941 8.40546 16.2221L8.96101 18.0944C8.9823 18.1633 9.02503 18.2236 9.08298 18.2666C9.14094 18.3096 9.21109 18.3329 9.28324 18.3333H11.161C11.2332 18.3329 11.3033 18.3096 11.3613 18.2666C11.4192 18.2236 11.4619 18.1633 11.4832 18.0944L12.0388 16.2166C12.4783 16.0879 12.9029 15.9128 13.3055 15.6944L15.0332 16.6166C15.0976 16.6508 15.1713 16.6633 15.2434 16.6523C15.3154 16.6413 15.382 16.6073 15.4332 16.5555L16.761 15.2277C16.8129 15.1765 16.8468 15.1099 16.8578 15.0378C16.8688 14.9658 16.8563 14.8921 16.8221 14.8277L15.8999 13.1055C16.1207 12.7014 16.2976 12.2749 16.4277 11.8333L18.2999 11.2777C18.3688 11.2564 18.4292 11.2137 18.4721 11.1557C18.5151 11.0978 18.5385 11.0276 18.5388 10.9555V9.06103C18.5421 8.99195 18.5241 8.92352 18.4874 8.86493C18.4506 8.80634 18.3969 8.76039 18.3332 8.73326ZM10.2388 13.0555C9.63446 13.0555 9.0437 12.8763 8.54121 12.5405C8.03873 12.2048 7.64709 11.7276 7.41583 11.1692C7.18456 10.6109 7.12405 9.99653 7.24195 9.40381C7.35985 8.81109 7.65086 8.26665 8.07819 7.83932C8.50551 7.41199 9.04996 7.12098 9.64268 7.00308C10.2354 6.88518 10.8498 6.94569 11.4081 7.17696C11.9664 7.40823 12.4436 7.79986 12.7794 8.30235C13.1151 8.80483 13.2943 9.39559 13.2943 9.99992C13.2943 10.8103 12.9724 11.5875 12.3994 12.1605C11.8264 12.7336 11.0492 13.0555 10.2388 13.0555Z" fill="white"/>
</g>
<defs>
<clipPath id="clip0_726_558">
<rect width="20" height="20" fill="white"/>
</clipPath>
</defs>
</svg>
