<svg width="30" height="30" viewBox="0 0 30 30" fill="none" xmlns="http://www.w3.org/2000/svg">
	<path d="M17.2163 12.4395C17.2163 12.4395 18.3493 5.8575 13.726 3C13.6571 4.13092 13.3475 5.23476 12.8172 6.23944C12.287 7.24412 11.5481 8.12703 10.6489 8.8305C8.67437 10.545 4.96082 14.4 5.00031 18.51C4.98613 20.2669 5.46937 21.9928 6.39551 23.493C7.32166 24.9931 8.65385 26.2078 10.2418 27C10.2985 26.2067 10.515 25.4326 10.8786 24.7229C11.2422 24.0133 11.7455 23.3825 12.3591 22.8675C12.879 22.4726 13.3141 21.9794 13.639 21.4167C13.9639 20.854 14.1722 20.233 14.2515 19.59C15.6108 20.3036 16.7592 21.3535 17.5845 22.6368C18.4098 23.9201 18.8837 25.3931 18.9599 26.9115V26.931C20.4587 26.253 21.7384 25.1786 22.6573 23.8269C23.5762 22.4752 24.0985 20.8987 24.1665 19.272C24.4945 15.411 22.353 10.161 20.4529 8.445C19.7356 10.0267 18.6216 11.4015 17.2163 12.4395Z" fill="#000" />
</svg>
