<svg width="116" height="53" viewBox="0 0 116 53" fill="none" xmlns="http://www.w3.org/2000/svg">
<g filter="url(#filter0_d_1025_552)">
<rect x="10" y="4" width="96" height="24" rx="4" fill="white"/>
<path d="M57 37L47.9996 28L67 28L57 37Z" fill="white"/>
</g>
<path d="M44.168 18.708C44.168 19.46 43.892 20.064 43.34 20.52C42.78 20.968 42.1 21.192 41.3 21.192C40.588 21.192 39.96 20.984 39.416 20.568C38.872 20.152 38.496 19.584 38.288 18.864L39.344 18.432C39.416 18.688 39.516 18.92 39.644 19.128C39.772 19.336 39.92 19.516 40.088 19.668C40.264 19.812 40.456 19.928 40.664 20.016C40.872 20.096 41.092 20.136 41.324 20.136C41.828 20.136 42.24 20.008 42.56 19.752C42.88 19.488 43.04 19.14 43.04 18.708C43.04 18.348 42.908 18.04 42.644 17.784C42.396 17.536 41.932 17.296 41.252 17.064C40.564 16.816 40.136 16.648 39.968 16.56C39.056 16.096 38.6 15.412 38.6 14.508C38.6 13.876 38.852 13.336 39.356 12.888C39.868 12.44 40.496 12.216 41.24 12.216C41.896 12.216 42.464 12.384 42.944 12.72C43.424 13.048 43.744 13.46 43.904 13.956L42.872 14.388C42.776 14.068 42.584 13.804 42.296 13.596C42.016 13.38 41.672 13.272 41.264 13.272C40.832 13.272 40.468 13.392 40.172 13.632C39.876 13.856 39.728 14.148 39.728 14.508C39.728 14.804 39.844 15.06 40.076 15.276C40.332 15.492 40.888 15.748 41.744 16.044C42.616 16.34 43.236 16.704 43.604 17.136C43.98 17.56 44.168 18.084 44.168 18.708ZM47.3281 21.096C46.8481 21.096 46.4481 20.948 46.1281 20.652C45.8161 20.356 45.6561 19.944 45.6481 19.416V16.128H44.6161V15.12H45.6481V13.32H46.7521V15.12H48.1921V16.128H46.7521V19.056C46.7521 19.448 46.8281 19.716 46.9801 19.86C47.1321 19.996 47.3041 20.064 47.4961 20.064C47.5841 20.064 47.6681 20.056 47.7481 20.04C47.8361 20.016 47.9161 19.988 47.9881 19.956L48.3361 20.94C48.0481 21.044 47.7121 21.096 47.3281 21.096ZM48.8477 18.06C48.8477 17.156 49.1317 16.408 49.6997 15.816C50.2757 15.224 50.9997 14.928 51.8717 14.928C52.7437 14.928 53.4637 15.224 54.0317 15.816C54.6077 16.408 54.8957 17.156 54.8957 18.06C54.8957 18.972 54.6077 19.72 54.0317 20.304C53.4637 20.896 52.7437 21.192 51.8717 21.192C50.9997 21.192 50.2757 20.896 49.6997 20.304C49.1317 19.712 48.8477 18.964 48.8477 18.06ZM49.9517 18.06C49.9517 18.692 50.1357 19.204 50.5037 19.596C50.8717 19.988 51.3277 20.184 51.8717 20.184C52.4157 20.184 52.8717 19.988 53.2397 19.596C53.6077 19.204 53.7917 18.692 53.7917 18.06C53.7917 17.436 53.6077 16.928 53.2397 16.536C52.8637 16.136 52.4077 15.936 51.8717 15.936C51.3357 15.936 50.8797 16.136 50.5037 16.536C50.1357 16.928 49.9517 17.436 49.9517 18.06ZM58.6374 21H57.5334L55.1574 15.12H56.3574L58.0854 19.68H58.1094L59.8614 15.12H61.0374L58.6374 21ZM64.2222 21.192C63.3582 21.192 62.6462 20.896 62.0862 20.304C61.5262 19.712 61.2462 18.964 61.2462 18.06C61.2462 17.164 61.5182 16.42 62.0622 15.828C62.6062 15.228 63.3022 14.928 64.1502 14.928C65.0222 14.928 65.7142 15.212 66.2262 15.78C66.7462 16.34 67.0062 17.128 67.0062 18.144L66.9942 18.264H62.3742C62.3902 18.84 62.5822 19.304 62.9502 19.656C63.3182 20.008 63.7582 20.184 64.2702 20.184C64.9742 20.184 65.5262 19.832 65.9262 19.128L66.9102 19.608C66.6462 20.104 66.2782 20.492 65.8062 20.772C65.3422 21.052 64.8142 21.192 64.2222 21.192ZM62.4582 17.352H65.8302C65.7982 16.944 65.6302 16.608 65.3262 16.344C65.0302 16.072 64.6302 15.936 64.1262 15.936C63.7102 15.936 63.3502 16.064 63.0462 16.32C62.7502 16.576 62.5542 16.92 62.4582 17.352ZM74.6541 21.192C73.3821 21.192 72.3181 20.764 71.4621 19.908C70.6141 19.052 70.1901 17.984 70.1901 16.704C70.1901 15.424 70.6141 14.36 71.4621 13.512C72.3101 12.648 73.3741 12.216 74.6541 12.216C75.9501 12.216 77.0021 12.684 77.8101 13.62L77.0181 14.388C76.4021 13.644 75.6141 13.272 74.6541 13.272C73.7021 13.272 72.9061 13.592 72.2661 14.232C71.6341 14.864 71.3181 15.688 71.3181 16.704C71.3181 17.72 71.6341 18.544 72.2661 19.176C72.9061 19.816 73.7021 20.136 74.6541 20.136C75.6541 20.136 76.5221 19.716 77.2581 18.876L78.0621 19.656C77.6541 20.144 77.1541 20.524 76.5621 20.796C75.9701 21.06 75.3341 21.192 74.6541 21.192ZM78.5899 18.06C78.5899 17.156 78.8739 16.408 79.4419 15.816C80.0179 15.224 80.7419 14.928 81.6139 14.928C82.4859 14.928 83.2059 15.224 83.7739 15.816C84.3499 16.408 84.6379 17.156 84.6379 18.06C84.6379 18.972 84.3499 19.72 83.7739 20.304C83.2059 20.896 82.4859 21.192 81.6139 21.192C80.7419 21.192 80.0179 20.896 79.4419 20.304C78.8739 19.712 78.5899 18.964 78.5899 18.06ZM79.6939 18.06C79.6939 18.692 79.8779 19.204 80.2459 19.596C80.6139 19.988 81.0699 20.184 81.6139 20.184C82.1579 20.184 82.6139 19.988 82.9819 19.596C83.3499 19.204 83.5339 18.692 83.5339 18.06C83.5339 17.436 83.3499 16.928 82.9819 16.536C82.6059 16.136 82.1499 15.936 81.6139 15.936C81.0779 15.936 80.6219 16.136 80.2459 16.536C79.8779 16.928 79.6939 17.436 79.6939 18.06ZM88.3796 21H87.2756L84.8996 15.12H86.0996L87.8276 19.68H87.8516L89.6036 15.12H90.7796L88.3796 21ZM93.9643 21.192C93.1003 21.192 92.3883 20.896 91.8283 20.304C91.2683 19.712 90.9883 18.964 90.9883 18.06C90.9883 17.164 91.2603 16.42 91.8043 15.828C92.3483 15.228 93.0443 14.928 93.8923 14.928C94.7643 14.928 95.4563 15.212 95.9683 15.78C96.4883 16.34 96.7483 17.128 96.7483 18.144L96.7363 18.264H92.1163C92.1323 18.84 92.3243 19.304 92.6923 19.656C93.0603 20.008 93.5003 20.184 94.0123 20.184C94.7163 20.184 95.2683 19.832 95.6683 19.128L96.6523 19.608C96.3883 20.104 96.0203 20.492 95.5483 20.772C95.0843 21.052 94.5563 21.192 93.9643 21.192ZM92.2003 17.352H95.5723C95.5403 16.944 95.3723 16.608 95.0683 16.344C94.7723 16.072 94.3723 15.936 93.8683 15.936C93.4523 15.936 93.0923 16.064 92.7883 16.32C92.4923 16.576 92.2963 16.92 92.2003 17.352Z" fill="url(#paint0_linear_1025_552)"/>
<path d="M23.25 10V12.5" stroke="url(#paint1_linear_1025_552)" stroke-width="1.2" stroke-linecap="round" stroke-linejoin="round"/>
<path d="M23.25 15.25V22" stroke="url(#paint2_linear_1025_552)" stroke-width="1.2" stroke-linecap="round" stroke-linejoin="round"/>
<path d="M25 10L25.5 13C25.5 13.5967 25.2629 14.169 24.841 14.591C24.419 15.0129 23.8467 15.25 23.25 15.25C22.6533 15.25 22.081 15.0129 21.659 14.591C21.2371 14.169 21 13.5967 21 13L21.5 10" stroke="url(#paint3_linear_1025_552)" stroke-width="1.2" stroke-linecap="round" stroke-linejoin="round"/>
<path d="M30.75 18H27.25C27.25 18 28 11 30.75 10V22" stroke="url(#paint4_linear_1025_552)" stroke-width="1.2" stroke-linecap="round" stroke-linejoin="round"/>
<defs>
<filter id="filter0_d_1025_552" x="0" y="0" width="116" height="53" filterUnits="userSpaceOnUse" color-interpolation-filters="sRGB">
<feFlood flood-opacity="0" result="BackgroundImageFix"/>
<feColorMatrix in="SourceAlpha" type="matrix" values="0 0 0 0 0 0 0 0 0 0 0 0 0 0 0 0 0 0 127 0" result="hardAlpha"/>
<feOffset dy="6"/>
<feGaussianBlur stdDeviation="5"/>
<feComposite in2="hardAlpha" operator="out"/>
<feColorMatrix type="matrix" values="0 0 0 0 0 0 0 0 0 0 0 0 0 0 0 0 0 0 0.5 0"/>
<feBlend mode="normal" in2="BackgroundImageFix" result="effect1_dropShadow_1025_552"/>
<feBlend mode="normal" in="SourceGraphic" in2="effect1_dropShadow_1025_552" result="shape"/>
</filter>
<linearGradient id="paint0_linear_1025_552" x1="38" y1="16.5" x2="98" y2="16.5" gradientUnits="userSpaceOnUse">
<stop stop-color="#E6733D"/>
<stop offset="1" stop-color="#D84440"/>
</linearGradient>
<linearGradient id="paint1_linear_1025_552" x1="23.25" y1="11.25" x2="24.25" y2="11.25" gradientUnits="userSpaceOnUse">
<stop stop-color="#E6733D"/>
<stop offset="1" stop-color="#D84440"/>
</linearGradient>
<linearGradient id="paint2_linear_1025_552" x1="23.25" y1="18.625" x2="24.25" y2="18.625" gradientUnits="userSpaceOnUse">
<stop stop-color="#E6733D"/>
<stop offset="1" stop-color="#D84440"/>
</linearGradient>
<linearGradient id="paint3_linear_1025_552" x1="21" y1="12.625" x2="25.5" y2="12.625" gradientUnits="userSpaceOnUse">
<stop stop-color="#E6733D"/>
<stop offset="1" stop-color="#D84440"/>
</linearGradient>
<linearGradient id="paint4_linear_1025_552" x1="27.25" y1="16" x2="30.75" y2="16" gradientUnits="userSpaceOnUse">
<stop stop-color="#E6733D"/>
<stop offset="1" stop-color="#D84440"/>
</linearGradient>
</defs>
</svg>
