<svg width="30" height="30" viewBox="0 0 30 30" fill="none" xmlns="http://www.w3.org/2000/svg">
<path d="M27.0092 6.04943C27.008 5.25818 26.6943 4.49944 26.1364 3.9384C25.5784 3.37736 24.8214 3.05947 24.0302 3.05393L16.6952 3.00593C16.2985 3.00324 15.9051 3.07929 15.538 3.22965C15.1708 3.38002 14.8371 3.60172 14.5562 3.88193L4.53322 13.8779C4.25409 14.1564 4.03258 14.4871 3.88135 14.8511C3.73012 15.2152 3.65213 15.6056 3.65186 15.9998C3.65158 16.3941 3.72901 16.7845 3.87973 17.1488C4.03044 17.5131 4.25148 17.8441 4.53022 18.1229L11.9537 25.5479C12.5163 26.1103 13.2792 26.4263 14.0747 26.4263C14.8702 26.4263 15.6331 26.1103 16.1957 25.5479L26.1422 15.5999C26.4213 15.3209 26.6427 14.9895 26.7935 14.6248C26.9443 14.26 27.0217 13.8691 27.0212 13.4744L27.0092 6.04943ZM21.0002 10.4999C20.6024 10.4999 20.2209 10.3419 19.9396 10.0606C19.6583 9.77928 19.5002 9.39775 19.5002 8.99993C19.5002 8.6021 19.6583 8.22057 19.9396 7.93927C20.2209 7.65796 20.6024 7.49993 21.0002 7.49993C21.398 7.49993 21.7796 7.65796 22.0609 7.93927C22.3422 8.22057 22.5002 8.6021 22.5002 8.99993C22.5002 9.39775 22.3422 9.77928 22.0609 10.0606C21.7796 10.3419 21.398 10.4999 21.0002 10.4999Z" fill="white"/>
</svg>
